<svg width="215" height="182" viewBox="0 0 215 182" fill="none" xmlns="http://www.w3.org/2000/svg">
<path d="M82.4407 39.2544C82.2768 38.5457 81.9782 37.8757 81.5624 37.2836C81.1467 36.6915 80.622 36.1892 80.0192 35.8061C80.5098 34.7213 80.6326 33.4925 80.3681 32.315C80.2112 31.6255 79.9235 30.973 79.5217 30.3956C79.1199 29.8182 78.6121 29.3275 78.0279 28.952C76.7811 28.1313 75.2781 27.8492 73.848 28.1675L62.7975 30.7L62.4133 25.7541C62.363 25.1257 62.2671 24.5015 62.1263 23.8865C61.0423 19.1566 56.702 14.3621 52.731 15.2722C51.5799 15.5368 50.5612 16.211 49.8516 17.1778L49.5231 17.6253L51.9013 25.3537C52.1043 26.0097 52.102 26.712 51.8949 27.3598L48.4968 40.4249L48.3162 40.679C48.1215 40.1727 47.7584 39.7527 47.2931 39.4952C46.8279 39.2377 46.2912 39.1599 45.7808 39.2759L34.0063 41.9743C33.4426 42.1041 32.9553 42.4605 32.6513 42.9654C32.3474 43.4702 32.2516 44.0822 32.385 44.667L37.6635 67.7001C37.7981 68.2847 38.1508 68.7939 38.6443 69.116C39.1377 69.4381 39.7316 69.5468 40.2956 69.4182L52.0712 66.7195C52.6341 66.589 53.1205 66.2323 53.4237 65.7277C53.727 65.2232 53.8224 64.6118 53.6891 64.0276L53.4231 62.8669L53.4429 62.8769C56.0513 64.2934 58.8593 63.6728 58.9789 63.6454L76.6734 59.5831L76.7299 59.5702C77.4715 59.3558 78.1557 58.9745 78.734 58.4535C79.3123 57.9324 79.7705 57.2844 80.076 56.5554C80.3814 55.8263 80.5268 55.0342 80.5016 54.2352C80.4764 53.4362 80.2814 52.65 79.9304 51.9323C81.0469 51.092 81.7896 49.8243 81.9967 48.4056C82.2037 46.987 81.8582 45.5324 81.0355 44.359C81.6771 43.712 82.1435 42.9022 82.3897 42.0079C82.6359 41.1137 82.6534 40.1652 82.4407 39.2544ZM51.6234 64.501C51.6259 64.5167 51.6228 64.5327 51.6148 64.5461C51.6067 64.5595 51.5942 64.5694 51.5795 64.5739L39.8039 67.2725C39.7888 67.2748 39.7733 67.2713 39.7604 67.2627C39.7475 67.2541 39.738 67.2409 39.7337 67.2257L34.4552 44.1926C34.4525 44.177 34.4553 44.1611 34.4632 44.1477C34.4711 44.1343 34.4834 44.1245 34.498 44.12L46.2736 41.4213C46.2888 41.419 46.3044 41.4224 46.3175 41.431C46.3306 41.4395 46.3403 41.4526 46.3449 41.4678L51.6234 64.501ZM78.9191 43.2538L77.6193 44.029L78.7838 45.043C79.2008 45.4049 79.522 45.8705 79.7163 46.3947C79.9105 46.9189 79.9712 47.484 79.8925 48.0351C79.8139 48.5861 79.5984 49.1047 79.2671 49.5404C78.9358 49.9761 78.4999 50.3142 78.0015 50.522L76.6536 51.0871L77.6103 52.2465C77.9516 52.6608 78.1887 53.155 78.3002 53.6842C78.4118 54.2134 78.3941 54.7608 78.2489 55.277C78.1037 55.7932 77.8356 56.2617 77.4687 56.6401C77.1019 57.0185 76.648 57.2948 76.1482 57.4439L58.4938 61.4982C58.4418 61.5102 56.2963 61.9559 54.4144 60.9336C54.0583 60.7321 53.677 60.5835 53.2821 60.4922L52.8583 60.4021L48.9797 43.4777L50.4466 41.4232L53.9242 28.0596C54.2621 26.9828 54.263 25.8184 53.9267 24.7301L51.8995 18.1416C52.2714 17.789 52.7272 17.5439 53.2221 17.4301C55.9044 16.8154 59.2225 20.7337 60.0562 24.3718C60.1718 24.8768 60.2504 25.3896 60.2912 25.9057L60.8746 33.4087L74.3463 30.3214C75.2246 30.1283 76.1468 30.3031 76.9116 30.8077C77.2566 31.028 77.5568 31.3163 77.7947 31.656C78.0326 31.9956 78.2034 32.3798 78.2971 32.786C78.406 33.2735 78.4046 33.7786 78.293 34.2618C78.1814 34.745 77.9626 35.1932 77.6537 35.5712L76.6274 36.8432L78.1787 37.3335C78.7689 37.5186 79.2964 37.8773 79.6964 38.3652C80.0964 38.8531 80.3513 39.4491 80.4298 40.0796C80.5083 40.7101 80.4069 41.3477 80.1381 41.9137C79.8693 42.4797 79.4448 42.9495 78.9171 43.2652L78.9191 43.2538Z" fill="white"/>
<circle cx="146.11" cy="97.1154" r="11.5" transform="rotate(-45 146.11 97.1154)" stroke="white" stroke-width="7"/>
<rect x="150.581" y="107.623" width="7" height="17.5364" transform="rotate(-45 150.581 107.623)" fill="white"/>
<path d="M27.0704 122.842C12.2019 125.501 2.05512 139.174 4.55793 153.168C5.9002 160.672 10.7185 167.044 17.6416 170.798L19.0222 178.517C19.1206 179.067 19.497 179.527 20.0161 179.731C20.5256 179.934 21.1137 179.865 21.5713 179.525L28.726 174.069C31.1961 174.269 33.6969 174.146 36.1674 173.704C51.036 171.045 61.2015 157.478 58.6988 143.484C56.196 129.491 41.939 120.182 27.0704 122.842ZM47.488 138.328L37.6356 156.459C37.1651 157.322 36.0618 157.543 35.2982 157.011L28.7718 152.465L18.1482 160.386C17.5438 160.836 16.702 160.808 16.1306 160.312C15.5578 159.816 15.4082 158.989 15.7687 158.324L25.6211 140.193C25.84 139.791 26.2215 139.5 26.666 139.395C27.119 139.282 27.5819 139.377 27.9585 139.64L34.4845 144.186L45.1081 136.266C45.715 135.815 46.5564 135.846 47.1261 136.34C47.6989 136.835 47.8485 137.662 47.488 138.328Z" fill="white"/>
<g clip-path="url(#clip0_202_8176)">
<path d="M212.404 14.8207L181.07 4.47101C180.289 4.21313 179.45 4.62976 179.195 5.40164L176.887 12.3893L170.761 10.3661C169.981 10.1082 169.141 10.5248 168.886 11.2967L161.193 34.589C160.259 37.4143 161.825 40.4813 164.683 41.4252L195.075 51.4636C198.452 52.5792 202.098 50.77 203.201 47.4309L213.356 16.6851C213.611 15.9132 213.185 15.0785 212.404 14.8207ZM168.732 37.079C168.308 38.3634 166.905 39.0592 165.606 38.6301C164.307 38.201 163.596 36.8071 164.02 35.5227L171.252 13.628L175.963 15.1844L168.732 37.079L168.732 37.079ZM200.373 46.4971C199.78 48.2948 197.816 49.2691 195.998 48.6685L170.222 40.1547C170.816 39.5753 171.282 38.8509 171.559 38.0128L181.56 7.73299L210.067 17.1488L200.373 46.4971Z" fill="white"/>
<path d="M204.419 18.7448L185.1 12.3638C184.319 12.106 183.48 12.5226 183.225 13.2945L180.147 22.6113C179.892 23.3832 180.319 24.2179 181.099 24.4758L200.418 30.8568C201.199 31.1147 202.038 30.698 202.293 29.9261L205.371 20.6093C205.625 19.8373 205.199 19.0027 204.419 18.7448ZM199.928 27.5948L183.436 22.1476L185.59 15.6258L202.082 21.073L199.928 27.5948Z" fill="white"/>
<path d="M188.513 32.0912L179.796 29.212C179.015 28.9541 178.176 29.3708 177.921 30.1427C177.666 30.9145 178.092 31.7492 178.873 32.0071L187.59 34.8863C188.371 35.1442 189.21 34.7276 189.465 33.9557C189.72 33.1838 189.294 32.3491 188.513 32.0912Z" fill="white"/>
<path d="M195.937 41.26L177.796 35.2681C177.015 35.0102 176.176 35.4268 175.921 36.1987C175.666 36.9706 176.092 37.8053 176.873 38.0631L195.013 44.055C195.794 44.3129 196.634 43.8963 196.889 43.1244C197.143 42.3525 196.717 41.5179 195.937 41.26Z" fill="white"/>
</g>
<defs>
<clipPath id="clip0_202_8176">
<rect width="43.9159" height="43.4179" fill="white" transform="translate(172.617) rotate(18.2785)"/>
</clipPath>
</defs>
</svg>
