<svg width="21" height="18" viewBox="0 0 21 18" fill="none" xmlns="http://www.w3.org/2000/svg">
<path d="M10.489 0C11.543 0 13.9927 0.568174 13.9927 4.02965C13.9927 4.99383 13.8753 5.59565 13.7932 6.01278C13.7769 6.09457 13.7616 6.17649 13.7473 6.25852L13.7464 6.26243C13.7401 6.30247 13.7443 6.34315 13.7589 6.38171C13.7735 6.42028 13.7979 6.45583 13.8307 6.48596C13.8635 6.51609 13.9038 6.5401 13.9488 6.55635C13.9939 6.57261 14.0427 6.58073 14.092 6.58017C18.2916 6.58017 20.5341 7.49113 20.5341 8.42165C20.5341 8.83878 20.3432 9.21991 20.031 9.51339C20.0214 9.52266 20.0143 9.5335 20.0101 9.54519C20.006 9.55689 20.0049 9.56917 20.007 9.58122C20.0091 9.59328 20.0142 9.60484 20.0222 9.61513C20.0301 9.62543 20.0406 9.63423 20.053 9.64096C20.3416 9.7905 20.5796 9.99722 20.7452 10.242C20.9107 10.4869 20.9983 10.7619 21 11.0418C21 11.7149 20.5446 12.2924 19.8401 12.5624C19.8268 12.5677 19.815 12.5751 19.8055 12.5843C19.7959 12.5935 19.7889 12.6043 19.7847 12.6158C19.7806 12.6274 19.7794 12.6396 19.7814 12.6516C19.7834 12.6635 19.7884 12.675 19.7962 12.6853C19.9938 12.942 20.1102 13.2433 20.1102 13.5681C20.1102 14.3084 19.588 14.9306 18.768 15.156C18.7421 15.1633 18.7209 15.1786 18.7087 15.1987C18.6966 15.2188 18.6945 15.2419 18.7031 15.2632C18.7613 15.4072 18.7966 15.5606 18.7966 15.7203C18.7966 16.5467 17.1011 17.2174 13.1163 17.2174C10.2045 17.2174 8.19589 16.7909 7.42356 16.4849C6.85553 16.2595 6.20539 15.851 6.20539 14.6536V9.89061C6.20539 8.54452 7.11997 7.64452 8.02978 6.74922C8.9329 5.86174 9.83316 4.97739 9.83316 3.66339C9.83316 2.6147 9.74628 1.94948 9.68137 1.45878C9.64413 1.17078 9.61454 0.942261 9.61454 0.732522C9.61454 0.320087 9.98113 0.00156522 10.489 0ZM3.34136 8.6087H1.43201C0.477338 8.6087 0 10.7108 0 13.3043C0 15.8979 0.477338 18 1.43201 18H3.34136C3.59456 18 3.83739 17.9175 4.01642 17.7708C4.19546 17.624 4.29604 17.425 4.29604 17.2174V9.3913C4.29604 9.18374 4.19546 8.98468 4.01642 8.83792C3.83739 8.69115 3.59456 8.6087 3.34136 8.6087Z" fill="#384CFF"/>
</svg>
