<svg width="22" height="21" viewBox="0 0 22 21" fill="none" xmlns="http://www.w3.org/2000/svg">
<path d="M7.62734 3.5C7.62734 3.13756 7.33353 2.84375 6.97109 2.84375C6.60866 2.84375 6.31484 3.13756 6.31484 3.5V5.08937C5.0084 5.27407 3.9763 6.3074 3.80158 7.62548L3.72585 8.19682C3.71301 8.29368 3.70073 8.3906 3.68901 8.48757C3.65794 8.74479 3.86059 8.96875 4.11969 8.96875H18.5724C18.8315 8.96875 19.0342 8.74479 19.0031 8.48757C18.9914 8.3906 18.9791 8.29368 18.9663 8.19681L18.8906 7.62548C18.7158 6.30741 17.6838 5.2741 16.3773 5.08938V3.5C16.3773 3.13756 16.0835 2.84375 15.7211 2.84375C15.3587 2.84375 15.0648 3.13756 15.0648 3.5V4.95918C12.5906 4.73883 10.1016 4.73883 7.62734 4.95917V3.5Z" fill="url(#paint0_linear_144_1655)"/>
<path d="M19.1726 10.6974C19.1649 10.4642 18.9723 10.2813 18.739 10.2813H3.9531C3.71985 10.2813 3.52721 10.4642 3.51954 10.6974C3.46757 12.2791 3.56365 13.864 3.80754 15.4314C3.99217 16.6179 4.95612 17.5293 6.15115 17.6471L7.19503 17.7501C9.95569 18.0223 12.7364 18.0223 15.4971 17.7501L16.541 17.6471C17.736 17.5293 18.7 16.6179 18.8846 15.4314C19.1285 13.864 19.2246 12.2791 19.1726 10.6974Z" fill="url(#paint1_linear_144_1655)"/>
<defs>
<linearGradient id="paint0_linear_144_1655" x1="11.3461" y1="2.84375" x2="11.3461" y2="17.9543" gradientUnits="userSpaceOnUse">
<stop stop-color="#384CFF"/>
<stop offset="1" stop-color="#00A3FF"/>
</linearGradient>
<linearGradient id="paint1_linear_144_1655" x1="11.3461" y1="2.84375" x2="11.3461" y2="17.9543" gradientUnits="userSpaceOnUse">
<stop stop-color="#384CFF"/>
<stop offset="1" stop-color="#00A3FF"/>
</linearGradient>
</defs>
</svg>
