<svg width="25" height="25" viewBox="0 0 25 25" fill="none" xmlns="http://www.w3.org/2000/svg">
<rect opacity="0.7" width="25" height="25" rx="7" fill="#DDDDDD"/>
<path d="M10.4153 12.5244C10.4153 11.4244 11.3487 10.5326 12.5 10.5326C13.6514 10.5326 14.5848 11.4244 14.5848 12.5244C14.5848 13.6244 13.6514 14.5161 12.5 14.5161C11.3487 14.5161 10.4153 13.6244 10.4153 12.5244Z" fill="black"/>
<path fill-rule="evenodd" clip-rule="evenodd" d="M8.30616 7.78177C8.30616 6.24544 9.60974 5 11.2178 5H13.7822C15.3903 5 16.6938 6.24544 16.6938 7.78177C16.6938 7.7949 16.7044 7.80584 16.7181 7.8069L18.7839 7.96719C19.7093 8.03899 20.4703 8.69277 20.643 9.56429C21.0838 11.7882 21.1166 14.0684 20.7402 16.3032L20.6501 16.838C20.4802 17.8462 19.6117 18.6132 18.5464 18.6959L16.7467 18.8355C13.9202 19.0548 11.0798 19.0548 8.25329 18.8355L6.45363 18.6959C5.38831 18.6132 4.51979 17.8462 4.34994 16.838L4.25984 16.3032C3.88335 14.0685 3.91622 11.7882 4.35696 9.56429C4.52968 8.69277 5.29071 8.03899 6.21608 7.96719L8.2819 7.8069C8.29561 7.80584 8.30616 7.7949 8.30616 7.78177ZM12.5 9.20481C10.5811 9.20481 9.02548 10.691 9.02548 12.5244C9.02548 14.3578 10.5811 15.844 12.5 15.844C14.419 15.844 15.9746 14.3578 15.9746 12.5244C15.9746 10.691 14.419 9.20481 12.5 9.20481Z" fill="black"/>
</svg>
