<svg width="18" height="16" viewBox="0 0 18 16" fill="none" xmlns="http://www.w3.org/2000/svg">
<path d="M7.03793 8.41236C7.03793 7.32873 7.91639 6.45027 9.00002 6.45027C10.0837 6.45027 10.9621 7.32873 10.9621 8.41236C10.9621 9.496 10.0837 10.3745 9.00002 10.3745C7.91639 10.3745 7.03793 9.496 7.03793 8.41236Z" stroke="#555555"/>
<path fill-rule="evenodd" clip-rule="evenodd" d="M5.05286 3.74035C5.05286 2.2269 6.27976 1 7.79321 1H10.2068C11.7202 1 12.9471 2.2269 12.9471 3.74035C12.9471 3.75329 12.9571 3.76406 12.97 3.76511L14.9143 3.92302C15.7852 3.99375 16.5015 4.63779 16.664 5.49633C17.0789 7.68717 17.1098 9.93343 16.7554 12.1349L16.6706 12.6617C16.5108 13.6549 15.6934 14.4105 14.6907 14.492L12.9969 14.6295C10.3367 14.8456 7.66332 14.8456 5.00309 14.6295L3.3093 14.492C2.30664 14.4105 1.48922 13.6549 1.32936 12.6617L1.24455 12.1349C0.890214 9.93343 0.921145 7.68717 1.33596 5.49633C1.49852 4.63779 2.21479 3.99375 3.08572 3.92302L5.03003 3.76511C5.04293 3.76406 5.05286 3.75329 5.05286 3.74035ZM9.00002 5.1422C7.19396 5.1422 5.72986 6.6063 5.72986 8.41236C5.72986 10.2184 7.19396 11.6825 9.00002 11.6825C10.8061 11.6825 12.2702 10.2184 12.2702 8.41236C12.2702 6.6063 10.8061 5.1422 9.00002 5.1422Z" stroke="#555555"/>
</svg>
