<svg width="16" height="20" viewBox="0 0 16 20" fill="none" xmlns="http://www.w3.org/2000/svg">
<path fill-rule="evenodd" clip-rule="evenodd" d="M12.4564 0.882643C9.50062 0.457901 6.49927 0.457901 3.54347 0.882643C2.07798 1.09323 0.948883 2.28262 0.814755 3.75708L0.687787 5.15281C0.394435 8.37759 0.394436 11.6223 0.687788 14.8471L0.814755 16.2428C0.948883 17.7173 2.07798 18.9067 3.54347 19.1173C6.49927 19.542 9.50062 19.542 12.4564 19.1173C13.9219 18.9067 15.051 17.7173 15.1851 16.2428L15.3121 14.8471C15.6055 11.6223 15.6055 8.37758 15.3121 5.15281L15.1851 3.75708C15.051 2.28262 13.9219 1.09323 12.4564 0.882643ZM5.99994 6.99997C5.99994 5.8954 6.89537 4.99997 7.99994 4.99997C9.10451 4.99997 9.99994 5.8954 9.99994 6.99997C9.99994 8.10454 9.10451 8.99997 7.99994 8.99997C6.89537 8.99997 5.99994 8.10454 5.99994 6.99997ZM3.99994 13.5C3.99994 11.8431 5.34308 10.5 6.99994 10.5H8.99994C10.6568 10.5 11.9999 11.8431 11.9999 13.5C11.9999 14.0523 11.5522 14.5 10.9999 14.5H4.99994C4.44765 14.5 3.99994 14.0523 3.99994 13.5Z" fill="#555555"/>
</svg>
