<svg width="19" height="19" viewBox="0 0 19 19" fill="none" xmlns="http://www.w3.org/2000/svg">
<path fill-rule="evenodd" clip-rule="evenodd" d="M5.73967 4.3235V5.50189C5.45344 5.52356 5.16735 5.54772 4.88143 5.57435C3.74073 5.68059 2.85111 6.73881 2.74078 7.87749C2.72813 8.00805 2.83558 8.11464 2.96675 8.11464H16.0334C16.1646 8.11464 16.272 8.00805 16.2594 7.87749C16.149 6.73881 15.2594 5.68059 14.1187 5.57435C13.8328 5.54772 13.5467 5.52357 13.2605 5.50189V4.3235C13.2605 3.63772 12.7588 3.05514 12.0806 2.95341L11.1148 2.80854C10.0443 2.64797 8.95585 2.64797 7.88534 2.80854L6.91958 2.95341C6.24139 3.05514 5.73967 3.63772 5.73967 4.3235ZM10.9387 3.9829C9.98496 3.83985 9.01522 3.83985 8.0615 3.9829L7.09573 4.12777C6.99885 4.1423 6.92717 4.22553 6.92717 4.3235V5.42623C8.6413 5.33756 10.3589 5.33756 12.073 5.42623V4.3235C12.073 4.22553 12.0013 4.1423 11.9044 4.12777L10.9387 3.9829Z" fill="url(#paint0_linear_144_1660)"/>
<path fill-rule="evenodd" clip-rule="evenodd" d="M16.2709 9.53964C16.2709 9.40847 16.1646 9.30214 16.0334 9.30214H2.96675C2.83558 9.30214 2.72925 9.40847 2.72925 9.53964V14.2305C2.72925 15.4554 3.66183 16.4788 4.88143 16.5924C7.95388 16.8786 11.0463 16.8786 14.1187 16.5924C15.3383 16.4788 16.2709 15.4554 16.2709 14.2305V9.53964ZM7.52092 12.073C7.193 12.073 6.92717 12.3388 6.92717 12.6667C6.92717 12.9946 7.193 13.2605 7.52092 13.2605H8.90634V14.6459C8.90634 14.9738 9.17217 15.2396 9.50009 15.2396C9.82801 15.2396 10.0938 14.9738 10.0938 14.6459V13.2605H11.4793C11.8072 13.2605 12.073 12.9946 12.073 12.6667C12.073 12.3388 11.8072 12.073 11.4793 12.073H10.0938V10.6876C10.0938 10.3596 9.82801 10.0938 9.50009 10.0938C9.17217 10.0938 8.90634 10.3596 8.90634 10.6876V12.073H7.52092Z" fill="url(#paint1_linear_144_1660)"/>
<defs>
<linearGradient id="paint0_linear_144_1660" x1="9.50008" y1="2.68811" x2="9.50008" y2="16.8071" gradientUnits="userSpaceOnUse">
<stop stop-color="#384CFF"/>
<stop offset="1" stop-color="#00A3FF"/>
</linearGradient>
<linearGradient id="paint1_linear_144_1660" x1="9.50008" y1="2.68811" x2="9.50008" y2="16.8071" gradientUnits="userSpaceOnUse">
<stop stop-color="#384CFF"/>
<stop offset="1" stop-color="#00A3FF"/>
</linearGradient>
</defs>
</svg>
