<svg width="30" height="30" viewBox="0 0 30 30" fill="none" xmlns="http://www.w3.org/2000/svg">
<rect width="30" height="30" rx="10" fill="#EEEEEE"/>
<path d="M19.6395 6.19519C19.7944 6.20992 19.8613 6.39807 19.7512 6.50814L12.0576 14.2018C11.9704 14.2889 11.9081 14.3977 11.8769 14.5169L10.9522 18.0571C10.89 18.2953 10.9587 18.5487 11.1328 18.7228C11.3069 18.8969 11.5603 18.9656 11.7985 18.9034L15.3387 17.9787C15.4579 17.9475 15.5667 17.8852 15.6538 17.7981L23.4564 9.99545C23.5659 9.88598 23.7531 9.95147 23.7692 10.1054C24.0943 13.2024 24.0759 16.3264 23.7141 19.4204C23.508 21.182 22.0921 22.5651 20.3367 22.7613C17.1482 23.1177 13.8518 23.1177 10.6633 22.7613C8.90787 22.5651 7.49197 21.182 7.28593 19.4204C6.90469 16.1608 6.90469 12.8678 7.28593 9.60825C7.49197 7.84663 8.90787 6.46347 10.6633 6.26727C13.62 5.93682 16.6693 5.91279 19.6395 6.19519Z" fill="black"/>
<path d="M20.8849 7.33606C20.9751 7.24596 21.1213 7.24596 21.2116 7.33606L22.5194 8.64393C22.6097 8.73421 22.6097 8.88058 22.5194 8.97086L14.8504 16.6399C14.8215 16.6687 14.7849 16.6896 14.7454 16.7001L12.9751 17.1625C12.8044 17.2069 12.6489 17.051 12.6932 16.8803L13.1556 15.1102C13.1659 15.0705 13.1867 15.0342 13.2158 15.0052L20.8849 7.33606Z" fill="black"/>
</svg>
