<svg width="22" height="18" viewBox="0 0 22 18" fill="none" xmlns="http://www.w3.org/2000/svg">
<path fill-rule="evenodd" clip-rule="evenodd" d="M0.270961 4.74561C-0.0558725 7.78232 -0.0413038 11.2846 0.41349 14.309C0.665138 15.9825 2.03092 17.2654 3.71683 17.4119L5.47877 17.5651C9.15266 17.8845 12.8473 17.8845 16.5212 17.5651L18.2832 17.4119C19.9691 17.2654 21.3348 15.9825 21.5865 14.309C22.0413 11.2846 22.0559 7.78252 21.729 4.7458C21.6868 4.39374 21.6393 4.04216 21.5865 3.69117C21.3348 2.01771 19.9691 0.734795 18.2832 0.588242L16.5212 0.43508C12.8473 0.115716 9.15266 0.115716 5.47877 0.43508L3.71683 0.588242C2.03092 0.734795 0.665138 2.01771 0.41349 3.69117C0.360719 4.0421 0.313209 4.39362 0.270961 4.74561ZM5.63032 2.1785C9.20337 1.86791 12.7966 1.86791 16.3697 2.1785L18.1316 2.33167C19.0117 2.40817 19.7246 3.07785 19.856 3.9514C19.8696 4.04212 19.8829 4.13288 19.8958 4.22368L13.4079 7.82803C11.9104 8.65999 10.0895 8.65999 8.59197 7.82803L2.10421 4.22372C2.11712 4.13291 2.13039 4.04213 2.14403 3.9514C2.27539 3.07785 2.98833 2.40817 3.86838 2.33167L5.63032 2.1785ZM20.1099 6.10664C20.3362 8.75235 20.2516 11.418 19.856 14.0488C19.7246 14.9223 19.0117 15.592 18.1316 15.6685L16.3697 15.8217C12.7966 16.1323 9.20336 16.1323 5.63032 15.8217L3.86839 15.6685C2.98833 15.592 2.27539 14.9223 2.14403 14.0488C1.74843 11.418 1.66377 8.75237 1.89007 6.10668L7.7421 9.3578C9.76816 10.4834 12.2317 10.4834 14.2578 9.3578L20.1099 6.10664Z" fill="black"/>
</svg>
