<svg width="38" height="38" viewBox="0 0 38 38" fill="none" xmlns="http://www.w3.org/2000/svg">
<path d="M31.1936 24.6926L27.2637 22.7282C27.0007 22.5967 26.7795 22.3945 26.625 22.1443C26.4704 21.8941 26.3886 21.6058 26.3887 21.3117V16.6884C26.3886 16.3943 26.4704 16.106 26.625 15.8558C26.7795 15.6056 27.0007 15.4034 27.2637 15.2718L31.1936 13.3074C31.3544 13.2268 31.5332 13.1887 31.7129 13.1966C31.8927 13.2045 32.0674 13.2582 32.2205 13.3527C32.3737 13.4471 32.5001 13.5791 32.5879 13.7362C32.6757 13.8932 32.7218 14.0701 32.722 14.25V23.75C32.722 23.93 32.676 24.107 32.5883 24.2642C32.5006 24.4214 32.3741 24.5536 32.221 24.6481C32.0678 24.7427 31.893 24.7965 31.7132 24.8045C31.5334 24.8125 31.3545 24.7743 31.1936 24.6937V24.6926Z" fill="url(#paint0_linear_151_4271)"/>
<path fill-rule="evenodd" clip-rule="evenodd" d="M5.27734 14.2501C5.27734 13.1303 5.72218 12.0563 6.514 11.2645C7.30582 10.4727 8.37976 10.0278 9.49957 10.0278H20.0551C21.1749 10.0278 22.2489 10.4727 23.0407 11.2645C23.8325 12.0563 24.2773 13.1303 24.2773 14.2501V23.7501C24.2773 24.8699 23.8325 25.9438 23.0407 26.7356C22.2489 27.5274 21.1749 27.9723 20.0551 27.9723H9.49957C8.37976 27.9723 7.30582 27.5274 6.514 26.7356C5.72218 25.9438 5.27734 24.8699 5.27734 23.7501V14.2501ZM13.7218 14.2501C13.7218 13.9701 13.833 13.7016 14.031 13.5037C14.2289 13.3057 14.4974 13.1945 14.7773 13.1945C15.0573 13.1945 15.3258 13.3057 15.5237 13.5037C15.7217 13.7016 15.8329 13.9701 15.8329 14.2501V17.6806C15.8329 17.8263 15.9511 17.9445 16.0968 17.9445H19.5273C19.8073 17.9445 20.0758 18.0557 20.2737 18.2537C20.4717 18.4516 20.5829 18.7201 20.5829 19.0001C20.5829 19.28 20.4717 19.5485 20.2737 19.7464C20.0758 19.9444 19.8073 20.0556 19.5273 20.0556H16.0968C16.0268 20.0556 15.9597 20.0834 15.9102 20.1329C15.8607 20.1824 15.8329 20.2495 15.8329 20.3195V23.7501C15.8329 24.03 15.7217 24.2985 15.5237 24.4964C15.3258 24.6944 15.0573 24.8056 14.7773 24.8056C14.4974 24.8056 14.2289 24.6944 14.031 24.4964C13.833 24.2985 13.7218 24.03 13.7218 23.7501V20.3195C13.7218 20.2495 13.694 20.1824 13.6445 20.1329C13.595 20.0834 13.5279 20.0556 13.4579 20.0556H10.0273C9.74739 20.0556 9.47891 19.9444 9.28095 19.7464C9.083 19.5485 8.97179 19.28 8.97179 19.0001C8.97179 18.7201 9.083 18.4516 9.28095 18.2537C9.47891 18.0557 9.74739 17.9445 10.0273 17.9445H13.4579C13.5279 17.9445 13.595 17.9167 13.6445 17.8672C13.694 17.8177 13.7218 17.7506 13.7218 17.6806V14.2501Z" fill="url(#paint1_linear_151_4271)"/>
<defs>
<linearGradient id="paint0_linear_151_4271" x1="26.5" y1="13" x2="33" y2="25" gradientUnits="userSpaceOnUse">
<stop stop-color="#384CFF"/>
<stop offset="1" stop-color="#00A3FF"/>
</linearGradient>
<linearGradient id="paint1_linear_151_4271" x1="5" y1="10" x2="24" y2="28" gradientUnits="userSpaceOnUse">
<stop stop-color="#384CFF"/>
<stop offset="1" stop-color="#00A3FF"/>
</linearGradient>
</defs>
</svg>
