<svg width="20" height="20" viewBox="0 0 20 20" fill="none" xmlns="http://www.w3.org/2000/svg">
<path d="M9.16658 3.125C7.4407 3.125 6.04159 4.52411 6.04159 6.25C6.04159 7.97589 7.4407 9.375 9.16658 9.375C10.8925 9.375 12.2916 7.97589 12.2916 6.25C12.2916 4.52411 10.8925 3.125 9.16658 3.125Z" fill="url(#paint0_linear_144_1653)"/>
<path d="M5.83325 11.0417C4.10736 11.0417 2.70825 12.4408 2.70825 14.1667V15.1569C2.70825 15.7846 3.16315 16.3198 3.78265 16.4209C7.34833 17.0031 10.9848 17.0031 14.5505 16.4209C15.17 16.3198 15.6249 15.7846 15.6249 15.1569V14.1667C15.6249 12.4408 14.2258 11.0417 12.4999 11.0417H12.2159C12.0621 11.0417 11.9093 11.066 11.7632 11.1137L11.0419 11.3492C9.82336 11.7471 8.50981 11.7471 7.29124 11.3492L6.56998 11.1137C6.42383 11.066 6.27105 11.0417 6.11731 11.0417H5.83325Z" fill="url(#paint1_linear_144_1653)"/>
<path d="M16.2499 5.20833C16.5951 5.20833 16.8749 5.48816 16.8749 5.83333V7.29167H18.3333C18.6784 7.29167 18.9583 7.57149 18.9583 7.91667C18.9583 8.26184 18.6784 8.54167 18.3333 8.54167H16.8749V10C16.8749 10.3452 16.5951 10.625 16.2499 10.625C15.9047 10.625 15.6249 10.3452 15.6249 10V8.54167H14.1666C13.8214 8.54167 13.5416 8.26184 13.5416 7.91667C13.5416 7.57149 13.8214 7.29167 14.1666 7.29167H15.6249V5.83333C15.6249 5.48816 15.9047 5.20833 16.2499 5.20833Z" fill="url(#paint2_linear_144_1653)"/>
<defs>
<linearGradient id="paint0_linear_144_1653" x1="10.8333" y1="3.125" x2="10.8333" y2="16.8575" gradientUnits="userSpaceOnUse">
<stop stop-color="#384CFF"/>
<stop offset="1" stop-color="#00A3FF"/>
</linearGradient>
<linearGradient id="paint1_linear_144_1653" x1="10.8333" y1="3.125" x2="10.8333" y2="16.8575" gradientUnits="userSpaceOnUse">
<stop stop-color="#384CFF"/>
<stop offset="1" stop-color="#00A3FF"/>
</linearGradient>
<linearGradient id="paint2_linear_144_1653" x1="10.8333" y1="3.125" x2="10.8333" y2="16.8575" gradientUnits="userSpaceOnUse">
<stop stop-color="#384CFF"/>
<stop offset="1" stop-color="#00A3FF"/>
</linearGradient>
</defs>
</svg>
