<svg width="20" height="15" viewBox="0 0 20 15" fill="none" xmlns="http://www.w3.org/2000/svg">
<path fill-rule="evenodd" clip-rule="evenodd" d="M10.4094 0C10.8235 0 11.1593 0.266467 11.1593 0.595172V1.97351C12.5905 1.9891 14.0212 2.04935 15.4479 2.15424L15.7795 2.17861C18.0439 2.34509 19.7876 3.83751 19.8261 5.64214L19.8382 6.20832C19.8853 8.41032 19.6616 10.6107 19.1705 12.7783C18.947 13.7647 17.8654 14.4825 16.6026 14.4825H16.3815C15.2452 14.4825 14.2156 13.951 13.7549 13.1266L12.6944 11.229C11.8155 9.65621 9.00325 9.65621 8.12434 11.229L7.06388 13.1266C6.60316 13.951 5.57355 14.4825 4.4372 14.4825H4.21618C2.95334 14.4825 1.87177 13.7647 1.64825 12.7783C1.15711 10.6107 0.933471 8.41032 0.980494 6.20832L0.992585 5.64215C1.03112 3.83751 2.77482 2.34509 5.03926 2.17861L5.37082 2.15424C6.79758 2.04935 8.22823 1.9891 9.65946 1.97351V0.595172C9.65946 0.266467 9.9952 0 10.4094 0ZM15.4087 4.56298C15.4087 4.12471 14.9611 3.76942 14.4089 3.76942C13.8566 3.76942 13.409 4.12471 13.409 4.56298V4.76137C13.409 5.19964 13.8566 5.55493 14.4089 5.55493C14.9611 5.55493 15.4087 5.19964 15.4087 4.76137V4.56298ZM6.40986 3.96781C6.82402 3.96781 7.15977 4.23428 7.15977 4.56298V5.55493H8.40961C8.82377 5.55493 9.15952 5.8214 9.15952 6.15011C9.15952 6.47881 8.82377 6.74528 8.40961 6.74528H7.15977V7.73723C7.15977 8.06593 6.82402 8.3324 6.40986 8.3324C5.9957 8.3324 5.65995 8.06593 5.65995 7.73723V6.74528H4.41011C3.99595 6.74528 3.6602 6.47881 3.6602 6.15011C3.6602 5.8214 3.99595 5.55493 4.41011 5.55493L5.65995 5.55493V4.56298C5.65995 4.23428 5.9957 3.96781 6.40986 3.96781ZM14.4089 6.74528C14.9611 6.74528 15.4087 7.10057 15.4087 7.53884V7.73723C15.4087 8.1755 14.9611 8.53079 14.4089 8.53079C13.8566 8.53079 13.409 8.1755 13.409 7.73723V7.53884C13.409 7.10057 13.8566 6.74528 14.4089 6.74528ZM16.4086 6.94367C16.9608 6.94367 17.4085 6.58838 17.4085 6.15011C17.4085 5.71183 16.9608 5.35654 16.4086 5.35654H16.1586C15.6064 5.35654 15.1588 5.71183 15.1588 6.15011C15.1588 6.58838 15.6064 6.94367 16.1586 6.94367H16.4086ZM13.659 6.15011C13.659 6.58838 13.2113 6.94367 12.6591 6.94367H12.4091C11.8569 6.94367 11.4092 6.58838 11.4092 6.1501C11.4092 5.71183 11.8569 5.35654 12.4091 5.35654H12.6591C13.2113 5.35654 13.659 5.71183 13.659 6.15011Z" fill="url(#paint0_linear_144_1674)"/>
<defs>
<linearGradient id="paint0_linear_144_1674" x1="10.4094" y1="0" x2="10.4094" y2="14.4825" gradientUnits="userSpaceOnUse">
<stop stop-color="#384CFF"/>
<stop offset="1" stop-color="#00A3FF"/>
</linearGradient>
</defs>
</svg>
