<svg width="14" height="17" viewBox="0 0 14 17" fill="none" xmlns="http://www.w3.org/2000/svg">
<path d="M12.2163 1.32927C12.436 1.1096 12.436 0.753441 12.2163 0.533771C11.9966 0.314101 11.6405 0.314101 11.4208 0.533771L10.8905 1.0641C10.5189 1.43568 10.5379 2.01308 10.8621 2.37481C13.039 4.80388 12.96 8.54053 10.6253 10.8752C9.41781 12.0827 7.83525 12.6868 6.25254 12.6875L6.25011 12.6875L6.24782 12.6875C4.77202 12.687 3.29641 12.1618 2.12494 11.112C1.7632 10.7878 1.1858 10.7688 0.814223 11.1404L0.283893 11.6707C0.0642232 11.8904 0.0642231 12.2465 0.283893 12.4662C0.503563 12.6859 0.859718 12.6859 1.07939 12.4662L1.49222 12.0534C2.70706 13.0963 4.18291 13.6755 5.68761 13.7909V14.9375H4.37511C4.06445 14.9375 3.81261 15.1893 3.81261 15.5C3.81261 15.8106 4.06445 16.0625 4.37511 16.0625H8.12511C8.43577 16.0625 8.68761 15.8106 8.68761 15.5C8.68761 15.1893 8.43577 14.9375 8.12511 14.9375H6.81261V13.791C8.49237 13.6622 10.1361 12.9554 11.4208 11.6707C14.1427 8.94881 14.2702 4.61541 11.8035 1.7421L12.2163 1.32927Z" fill="url(#paint0_linear_3263_392)"/>
<path fill-rule="evenodd" clip-rule="evenodd" d="M1.37511 6.49998C1.37511 3.8076 3.55772 1.62498 6.25011 1.62498C8.94249 1.62498 11.1251 3.8076 11.1251 6.49998C11.1251 9.19237 8.94249 11.375 6.25011 11.375C3.55772 11.375 1.37511 9.19237 1.37511 6.49998ZM7.75011 3.68748C6.61102 3.68748 5.68761 4.6109 5.68761 5.74998C5.68761 6.88907 6.61102 7.81248 7.75011 7.81248C8.88919 7.81248 9.81261 6.88907 9.81261 5.74998C9.81261 4.6109 8.88919 3.68748 7.75011 3.68748ZM2.68761 8.37498C2.68761 7.85722 3.10734 7.43748 3.62511 7.43748C4.14287 7.43748 4.56261 7.85722 4.56261 8.37498C4.56261 8.89275 4.14287 9.31248 3.62511 9.31248C3.10734 9.31248 2.68761 8.89275 2.68761 8.37498Z" fill="url(#paint1_linear_3263_392)"/>
<defs>
<linearGradient id="paint0_linear_3263_392" x1="6.84087" y1="0.369019" x2="6.84087" y2="16.0625" gradientUnits="userSpaceOnUse">
<stop stop-color="#384CFF"/>
<stop offset="1" stop-color="#00A3FF"/>
</linearGradient>
<linearGradient id="paint1_linear_3263_392" x1="6.84087" y1="0.369019" x2="6.84087" y2="16.0625" gradientUnits="userSpaceOnUse">
<stop stop-color="#384CFF"/>
<stop offset="1" stop-color="#00A3FF"/>
</linearGradient>
</defs>
</svg>
