<svg width="13" height="13" viewBox="0 0 13 13" fill="none" xmlns="http://www.w3.org/2000/svg">
<path d="M6.5834 5.01782C5.85105 5.01782 5.25732 5.62994 5.25732 6.38505C5.25732 7.14013 5.85102 7.75227 6.5834 7.75227C7.31576 7.75227 7.90948 7.14016 7.90948 6.38505C7.90948 5.62994 7.31579 5.01782 6.5834 5.01782ZM6.5834 7.10119C6.19978 7.10119 5.88879 6.78055 5.88879 6.38502C5.88879 5.98949 6.19978 5.66885 6.5834 5.66885C6.96703 5.66885 7.27802 5.98949 7.27802 6.38502C7.27802 6.78055 6.96703 7.10119 6.5834 7.10119Z" fill="#5F6368"/>
<path d="M11.8719 1.89283L3.25246 0.88374C2.91794 0.834705 2.579 0.935393 2.32107 1.16045C2.06318 1.36662 1.89786 1.67223 1.86326 2.00679L1.70541 3.34144H1.216C0.521387 3.34144 0.000426622 3.97619 0.000426622 4.69234V11.3492C-0.0170686 12.0322 0.505704 12.6004 1.16811 12.6185C1.18406 12.6189 1.20005 12.619 1.216 12.6188H9.88277C10.5774 12.6188 11.2088 12.0654 11.2088 11.3492V11.0888C11.4242 11.0459 11.6285 10.9572 11.8087 10.8284C12.0645 10.6064 12.2283 10.292 12.2665 9.94952L12.9927 3.34144C13.0668 2.62363 12.5671 1.97791 11.8719 1.89283ZM10.5774 11.3492C10.5774 11.7073 10.2301 11.9677 9.88277 11.9677H1.216C0.902264 11.9772 0.640469 11.7227 0.631253 11.3993C0.63077 11.3826 0.630981 11.3659 0.631888 11.3492V10.1448L3.07881 8.28935C3.37275 8.05667 3.78678 8.07736 4.05758 8.33817L5.77831 9.90067C6.03962 10.1269 6.36855 10.2533 6.70972 10.2588C6.97647 10.2621 7.23884 10.1889 7.46749 10.0472L10.5774 8.19169V11.3492H10.5774ZM10.5774 7.42672L7.13593 9.49378C6.84041 9.67428 6.46636 9.6416 6.20451 9.41241L4.468 7.83361C3.97031 7.3927 3.24288 7.36565 2.7157 7.7685L0.631888 9.331V4.69234C0.631888 4.33427 0.868693 3.99248 1.216 3.99248H9.88277C10.2538 4.00834 10.5535 4.31028 10.5774 4.69234V7.42672ZM12.3619 3.25355C12.3617 3.2557 12.3615 3.25788 12.3612 3.26003L11.6193 9.86812C11.6205 10.0395 11.5448 10.2017 11.414 10.3076C11.3509 10.3727 11.2088 10.4052 11.2088 10.4378V4.69234C11.1839 3.95086 10.6022 3.35823 9.88274 3.34144H2.33685L2.47892 2.0719C2.50974 1.90751 2.59311 1.75853 2.71573 1.64871C2.85418 1.55002 3.02158 1.50401 3.18934 1.51849L11.793 2.54388C12.1401 2.57787 12.3948 2.8956 12.3619 3.25355Z" fill="#5F6368"/>
</svg>
