<svg width="20" height="18" viewBox="0 0 20 18" fill="none" xmlns="http://www.w3.org/2000/svg">
<path d="M13.9274 0.265381C12.3046 0.265381 12.6363 1.96613 12.6363 3.98224C12.6363 5.99834 12.3046 7.56635 13.9274 7.56635C15.5503 7.56635 16.8658 5.93197 16.8658 3.91586C16.8658 1.89976 15.5503 0.265381 13.9274 0.265381Z" fill="url(#paint0_linear_164_4668)"/>
<path d="M14.3549 10.354C14.1043 10.7045 14.1043 10.7045 14.2124 12.007V13.1638C14.2124 13.897 14.0573 16.0766 14.6398 16.1948C15.4946 16.1948 15.6908 16.1948 18.9899 15.7971C19.7686 15.7971 20.0001 15.0537 20.0001 14.3205V13.1638C20.0001 11.1477 18.6846 9.51327 17.0617 9.51327H16.7946C16.6501 9.51327 16.5064 9.54167 16.369 9.59742L15.6908 9.87254C14.545 10.3373 14.2124 10.5069 14.2503 10.5069C14.1129 10.4511 14.4994 10.354 14.3549 10.354Z" fill="url(#paint1_linear_164_4668)"/>
<path d="M6.6247 0C4.85435 0 3.4192 1.78296 3.4192 3.98235C3.4192 6.18173 4.85435 7.96469 6.6247 7.96469C8.39505 7.96469 9.8302 6.18173 9.8302 3.98235C9.8302 1.78296 8.39505 0 6.6247 0Z" fill="url(#paint2_linear_164_4668)"/>
<path d="M3.2055 10.0886C1.43515 10.0886 0 11.8716 0 14.071V15.3329C0 16.1328 0.466621 16.8148 1.10207 16.9437C4.75961 17.6855 8.48979 17.6855 12.1473 16.9437C12.7828 16.8148 13.2494 16.1328 13.2494 15.3329V14.071C13.2494 11.8716 11.8142 10.0886 10.0439 10.0886H9.75252C9.59482 10.0886 9.43811 10.1196 9.28819 10.1804L8.54835 10.4805C7.29839 10.9876 5.95101 10.9876 4.70105 10.4805L3.9612 10.1804C3.81129 10.1196 3.65458 10.0886 3.49687 10.0886H3.2055Z" fill="url(#paint3_linear_164_4668)"/>
<defs>
<linearGradient id="paint0_linear_164_4668" x1="16.3043" y1="0.265381" x2="16.3043" y2="16.1948" gradientUnits="userSpaceOnUse">
<stop stop-color="#384CFF"/>
<stop offset="1" stop-color="#00A3FF"/>
</linearGradient>
<linearGradient id="paint1_linear_164_4668" x1="16.3043" y1="0.265381" x2="16.3043" y2="16.1948" gradientUnits="userSpaceOnUse">
<stop stop-color="#384CFF"/>
<stop offset="1" stop-color="#00A3FF"/>
</linearGradient>
<linearGradient id="paint2_linear_164_4668" x1="0" y1="0" x2="13.6364" y2="17.2727" gradientUnits="userSpaceOnUse">
<stop stop-color="#384CFF"/>
<stop offset="1" stop-color="#00A3FF"/>
</linearGradient>
<linearGradient id="paint3_linear_164_4668" x1="0" y1="0" x2="13.6364" y2="17.2727" gradientUnits="userSpaceOnUse">
<stop stop-color="#384CFF"/>
<stop offset="1" stop-color="#00A3FF"/>
</linearGradient>
</defs>
</svg>
