<svg width="26" height="23" viewBox="0 0 26 23" fill="none" xmlns="http://www.w3.org/2000/svg">
<path d="M17.7128 1.3186C15.7655 1.3186 16.1635 3.35949 16.1635 5.77881C16.1635 8.19813 15.7655 10.0797 17.7128 10.0797C19.6602 10.0797 21.2389 8.11848 21.2389 5.69916C21.2389 3.27985 19.6602 1.3186 17.7128 1.3186Z" stroke="black" stroke-linecap="round" stroke-linejoin="round"/>
<path d="M18.2257 13.4249C17.9251 13.8455 17.9251 13.8455 18.0548 15.4085V16.7966C18.0548 17.6765 17.8687 20.292 18.5677 20.4338C19.5934 20.4338 19.8289 20.4338 23.7877 19.9566C24.7222 19.9566 25 19.0646 25 18.1847V16.7966C25 14.3773 23.4214 12.416 21.474 12.416H21.1535C20.98 12.416 20.8076 12.4501 20.6427 12.517L19.8289 12.8471C18.4539 13.4049 18.0548 13.6083 18.1003 13.6083C17.9354 13.5414 18.3992 13.4249 18.2257 13.4249Z" stroke="black" stroke-linecap="round" stroke-linejoin="round"/>
<path d="M8.9496 1C6.82519 1 5.10302 3.13954 5.10302 5.77879C5.10302 8.41805 6.82519 10.5576 8.9496 10.5576C11.074 10.5576 12.7962 8.41805 12.7962 5.77879C12.7962 3.13954 11.074 1 8.9496 1Z" stroke="black" stroke-linecap="round" stroke-linejoin="round"/>
<path d="M4.84658 13.1063C2.72217 13.1063 1 15.2458 1 17.8851V19.3994C1 20.3592 1.55994 21.1777 2.32248 21.3323C6.71151 22.2226 11.1877 22.2226 15.5767 21.3323C16.3393 21.1777 16.8992 20.3592 16.8992 19.3994V17.8851C16.8992 15.2458 15.177 13.1063 13.0526 13.1063H12.703C12.5137 13.1063 12.3257 13.1435 12.1458 13.2164L11.258 13.5766C9.75803 14.1851 8.14118 14.1851 6.64123 13.5766L5.75342 13.2164C5.57353 13.1435 5.38547 13.1063 5.19623 13.1063H4.84658Z" stroke="black" stroke-linecap="round" stroke-linejoin="round"/>
</svg>
