<svg width="24" height="33" viewBox="0 0 24 33" fill="none" xmlns="http://www.w3.org/2000/svg">
<path d="M16.7128 0.33374C14.7655 0.33374 15.1635 2.36554 15.1635 4.77407C15.1635 7.18261 14.7655 9.05582 16.7128 9.05582C18.6602 9.05582 20.2389 7.10332 20.2389 4.69478C20.2389 2.28625 18.6602 0.33374 16.7128 0.33374Z" fill="#384CFF"/>
<path d="M17.2257 12.3861C16.9251 12.8048 16.9251 12.8048 17.0548 14.3609V15.7428C17.0548 16.6187 16.8687 19.2226 17.5677 19.3637C18.5934 19.3637 18.8289 19.3637 22.7877 18.8887C23.7222 18.8887 24 18.0006 24 17.1247V15.7428C24 13.3342 22.4214 11.3817 20.474 11.3817H20.1535C19.98 11.3817 19.8076 11.4156 19.6427 11.4822L18.8289 11.8109C17.4539 12.3662 17.0548 12.5687 17.1003 12.5687C16.9354 12.5021 17.3992 12.3861 17.2257 12.3861Z" fill="#384CFF"/>
<path d="M7.9496 0C5.82519 0 4.10302 2.13954 4.10302 4.77879C4.10302 7.41805 5.82519 9.55759 7.9496 9.55759C10.074 9.55759 11.7962 7.41805 11.7962 4.77879C11.7962 2.13954 10.074 0 7.9496 0Z" fill="#384CFF"/>
<path d="M3.84658 12.1063C1.72217 12.1063 0 14.2458 0 16.8851V18.3994C0 19.3592 0.559943 20.1777 1.32248 20.3323C5.71151 21.2226 10.1877 21.2226 14.5767 20.3323C15.3393 20.1777 15.8992 19.3592 15.8992 18.3994V16.8851C15.8992 14.2458 14.177 12.1063 12.0526 12.1063H11.703C11.5137 12.1063 11.3257 12.1435 11.1458 12.2164L10.258 12.5766C8.75803 13.1851 7.14118 13.1851 5.64123 12.5766L4.75342 12.2164C4.57353 12.1435 4.38547 12.1063 4.19623 12.1063H3.84658Z" fill="#384CFF"/>
<ellipse cx="11.8397" cy="29.6667" rx="2.83973" ry="2.66667" fill="#384CFF"/>
</svg>
