<svg width="20" height="32" viewBox="0 0 20 32" fill="none" xmlns="http://www.w3.org/2000/svg">
<ellipse cx="9.65503" cy="29.3333" rx="2.83973" ry="2.66667" fill="#384CFF"/>
<path d="M12.3638 0.881678C11.0708 -0.293891 8.92924 -0.293892 7.6363 0.881671L1.32114 6.62354C0.958448 6.9533 0.71473 7.37019 0.620688 7.82168C-0.146269 11.5038 -0.202882 15.2733 0.453227 18.972L0.685518 20.2815C0.758888 20.6951 1.16353 21 1.63904 21H6.0518C6.41522 21 6.70984 20.7406 6.70984 20.4207V12.3103H13.2902V20.4207C13.2902 20.7406 13.5848 21 13.9483 21H18.361C18.8365 21 19.2411 20.6951 19.3145 20.2815L19.5468 18.972C20.2029 15.2733 20.1463 11.5038 19.3793 7.82167C19.2853 7.37019 19.0416 6.9533 18.6789 6.62354L12.3638 0.881678Z" fill="#384CFF"/>
</svg>
