<svg width="10" height="10" viewBox="0 0 10 10" fill="none" xmlns="http://www.w3.org/2000/svg">
<path d="M9.99895 4.94828C9.99751 4.80206 9.9901 4.65686 9.97632 4.51393C9.93005 4.03743 9.81611 3.58067 9.64542 3.15249C9.63267 3.12062 9.62094 3.08833 9.60737 3.05686C9.37991 2.51949 9.06052 2.03023 8.66956 1.60802C8.64386 1.58046 8.61774 1.55332 8.59162 1.52658C8.51779 1.44987 8.4419 1.37501 8.36334 1.30324C7.47448 0.493985 6.29399 0 4.99999 0C3.69508 0 2.50616 0.502828 1.61484 1.32442C1.40712 1.51589 1.21627 1.72483 1.0431 1.94859C0.38993 2.79342 0 3.85172 0 4.9999C0 7.75712 2.24313 10 5.00019 10C6.93956 10 8.62329 8.88946 9.4521 7.27136C9.62938 6.92545 9.76737 6.55671 9.86033 6.17028C9.88398 6.07219 9.90434 5.97368 9.92203 5.87393C9.97241 5.58992 9.99997 5.29789 9.99997 4.9999C10.0002 4.98262 9.99915 4.96555 9.99895 4.94828ZM9.05785 2.94992L9.08685 2.91743C9.12489 2.99126 9.16047 3.06632 9.19441 3.14242L9.14711 3.14057L9.05785 3.1529V2.94992ZM8.33537 2.07753L8.33619 1.85419C8.41475 1.93748 8.49043 2.02324 8.56283 2.11208L8.47275 2.24617L8.15788 2.24329L8.13814 2.17769L8.33537 2.07753ZM2.30379 1.52247V1.51404H2.40395L2.41259 1.47969H2.5765V1.55126L2.5294 1.61419H2.30359L2.30379 1.52247ZM2.4638 1.7456C2.4638 1.7456 2.56395 1.72853 2.57259 1.72853C2.58123 1.72853 2.57259 1.82848 2.57259 1.82848L2.34678 1.84267L2.30379 1.79126L2.4638 1.7456ZM9.37642 3.73039H9.01055L8.78761 3.56442L8.55296 3.58725V3.73039H8.47871L8.39851 3.67321L7.99212 3.57018V3.30694L7.47715 3.34704L7.31756 3.4328H7.11314L7.01298 3.42272L6.76475 3.56051V3.81985L6.25739 4.18591L6.29955 4.34221H6.40238L6.37544 4.4911L6.30304 4.51763L6.29914 4.90673L6.7376 5.40607H6.92845L6.93997 5.37563H7.28301L7.38193 5.28411H7.57649L7.68322 5.39105L7.9732 5.42108L7.93474 5.80668L8.2566 6.37491L8.08714 6.69882L8.09865 6.85141L8.23213 6.98447V7.35136L8.40735 7.58704V7.89183H8.55871C7.71633 8.92607 6.43425 9.58848 4.99978 9.58848C2.46976 9.58869 0.411318 7.53008 0.411318 4.9999C0.411318 4.36298 0.542118 3.75589 0.777597 3.20411V3.06098L0.941714 2.8617C0.998681 2.75414 1.05976 2.64925 1.12496 2.54704L1.13236 2.63033L0.941714 2.8617C0.882689 2.97316 0.827573 3.0871 0.777597 3.20411L0.777803 3.4653L0.968449 3.55702V3.92L1.15128 4.23198L1.29997 4.25481L1.3191 4.14787L1.14367 3.87722L1.10933 3.61419H1.21216L1.25555 3.88483L1.50913 4.25481L1.44373 4.37429L1.60496 4.62087L2.00538 4.72V4.65522L2.16559 4.67805L2.15037 4.79239L2.27624 4.81542L2.47058 4.86848L2.74514 5.18129L3.09579 5.20781L3.13013 5.49388L2.89013 5.6617L2.87882 5.91712L2.84447 6.07342L3.19163 6.50797L3.21816 6.65686C3.21816 6.65686 3.34402 6.691 3.35944 6.691C3.37466 6.691 3.64161 6.89316 3.64161 6.89316V7.67856L3.73683 7.7053L3.67205 8.06766L3.83225 8.28134L3.80264 8.64041L4.01426 9.01244L4.28594 9.24977L4.55905 9.2547L4.58579 9.16689L4.38507 8.99784L4.39658 8.91393L4.43257 8.81111L4.44018 8.70622L4.30445 8.70211L4.23596 8.61614L4.34866 8.50776L4.36388 8.42591L4.23802 8.38992L4.24542 8.31383L4.42476 8.28668L4.69746 8.15568L4.78898 7.98787L5.07505 7.6218L5.01006 7.33553L5.09788 7.18314L5.36092 7.19116L5.53799 7.0509L5.59516 6.49851L5.79157 6.24905L5.82591 6.08884L5.64679 6.03146L5.52853 5.83753L5.12441 5.83342L4.80399 5.71126L4.78877 5.48278L4.68183 5.29584L4.39206 5.29152L4.22465 5.02869L4.07596 4.95609L4.06835 5.0363L3.7977 5.05234L3.69858 4.91434L3.41621 4.85697L3.1836 5.12576L2.81753 5.06365L2.791 4.6511L2.52385 4.60545L2.631 4.40308L2.60035 4.28689L2.24929 4.52154L2.02842 4.4946L1.94965 4.32206L1.99777 4.14416L2.11952 3.91979L2.39984 3.77789L2.94113 3.77769L2.93969 3.94283L3.13425 4.03332L3.11882 3.75116L3.25908 3.61008L3.54207 3.42416L3.5614 3.29337L3.84356 2.99969L4.14362 2.83352L4.11709 2.81172L4.32028 2.62046L4.39473 2.64021L4.42887 2.68298L4.50599 2.59743L4.52491 2.589L4.44039 2.57707L4.35463 2.54848V2.46622L4.40008 2.429H4.50024L4.5461 2.44915L4.58579 2.52936L4.63433 2.52195V2.51496L4.64831 2.51969L4.78898 2.4981L4.80893 2.42941L4.88914 2.44956V2.52401L4.81469 2.57522L4.82579 2.65686L5.08061 2.73542C5.08061 2.73542 5.08081 2.73645 5.08122 2.73851L5.13984 2.73357L5.14374 2.62314L4.94179 2.53121L4.93027 2.47815L5.09788 2.42098L5.10528 2.26057L4.93006 2.15383L4.91855 1.88339L4.67834 2.00144H4.59072L4.61376 1.79558L4.28676 1.71846L4.15144 1.82067V2.13244L3.90814 2.20956L3.81066 2.41275L3.70495 2.42982V2.16987L3.47626 2.1382L3.36191 2.06375L3.31584 1.89532L3.7249 1.65594L3.92501 1.59506L3.94516 1.72956L4.05663 1.7238L4.06527 1.65614L4.18187 1.63949L4.18393 1.61584L4.13375 1.59506L4.12223 1.5235L4.26558 1.51136L4.35216 1.42129L4.35689 1.4147L4.38424 1.38797L4.68553 1.34992L4.8188 1.46303L4.46939 1.64915L4.91402 1.75404L4.97161 1.60535H5.16595L5.23464 1.47578L5.09726 1.44144V1.27753L4.66641 1.08668L4.36902 1.12103L4.20121 1.20884L4.21272 1.42231L4.0373 1.39558L4.01035 1.27753L4.17838 1.12494L3.87339 1.10972L3.78577 1.13625L3.74773 1.23907L3.86207 1.25841L3.83925 1.37275L3.6449 1.38427L3.61446 1.46036L3.3325 1.46817C3.3325 1.46817 3.32469 1.30817 3.31338 1.30817C3.30206 1.30817 3.53446 1.30427 3.53446 1.30427L3.70248 1.14015L3.61076 1.09429L3.4888 1.21275L3.28643 1.20123L3.16448 1.03342H2.90514L2.63449 1.23558H2.88252L2.90514 1.30817L2.84077 1.36802L3.11533 1.37563L3.15728 1.47476L2.84817 1.46324L2.83316 1.38694L2.63881 1.34499L2.53578 1.28781L2.30441 1.28967C3.06185 0.737892 3.99329 0.411311 4.99999 0.411311C6.16032 0.411311 7.22049 0.845039 8.02935 1.55763L7.97485 1.65512L7.76322 1.73799L7.67397 1.83486L7.69453 1.94776L7.80374 1.96298L7.86955 2.12751L8.05793 2.05162L8.08899 2.27167H8.03223L7.87757 2.24884L7.70605 2.27763L7.54008 2.51208L7.30275 2.54931L7.26841 2.75249L7.36856 2.77614L7.33957 2.90673L7.10388 2.85943L6.88773 2.90673L6.84187 3.02704L6.8793 3.27959L7.00619 3.33902L7.21905 3.33779L7.36281 3.32483L7.40661 3.21049L7.63119 2.91866L7.77906 2.94889L7.92467 2.81728L7.95181 2.9201L8.31007 3.16175L8.26627 3.22057L8.10482 3.21193L8.16693 3.29995L8.26627 3.32175L8.38267 3.27321L8.3802 3.13296L8.43182 3.10704L8.39028 3.06303L8.1513 2.92977L8.08837 2.7527H8.28704L8.35059 2.81563L8.5217 2.96308L8.52889 3.14139L8.70617 3.33018L8.77219 3.07147L8.89497 3.00442L8.918 3.21604L9.0379 3.34766L9.27708 3.34355C9.32335 3.46262 9.3649 3.58375 9.4013 3.70735L9.37642 3.73039ZM2.72725 2.27167L2.84735 2.2145L2.95594 2.24041L2.91851 2.38622L2.80128 2.42344L2.72725 2.27167ZM3.36458 2.61491V2.70931H3.09024L2.98741 2.68072L3.01311 2.61491L3.14494 2.56041H3.3251V2.61491H3.36458ZM3.49086 2.74653V2.83805L3.42217 2.88226L3.33662 2.8981C3.33662 2.8981 3.33662 2.76093 3.33662 2.74653H3.49086ZM3.41353 2.70931V2.60051L3.50793 2.68648L3.41353 2.70931ZM3.45651 2.92936V3.01841L3.39091 3.08422H3.2451L3.26793 2.98427L3.33682 2.9783L3.35101 2.94396L3.45651 2.92936ZM3.09332 2.74653H3.24489L3.05054 3.0182L2.97034 2.97522L2.98761 2.86087L3.09332 2.74653ZM3.714 2.8981V2.98694H3.56819L3.52829 2.92936V2.84668H3.53981L3.714 2.8981ZM3.57929 2.77594L3.62084 2.73234L3.69097 2.77594L3.63482 2.82221L3.57929 2.77594ZM9.45086 3.96195L9.46526 3.94509C9.47122 3.971 9.4776 3.99692 9.48336 4.02324L9.45086 3.96195Z" fill="#555555"/>
</svg>
