<svg width="16" height="14" viewBox="0 0 16 14" fill="none" xmlns="http://www.w3.org/2000/svg">
<path fill-rule="evenodd" clip-rule="evenodd" d="M3.68385 2.33374V3.4352L2.26767 3.54121C1.26637 3.61617 0.449585 4.31536 0.288996 5.23502C0.254095 5.4349 0.222356 5.63512 0.193777 5.83563C0.179595 5.93514 0.23681 6.03145 0.334622 6.0744L0.399043 6.10269C4.93762 8.0957 10.3724 8.09571 14.911 6.10269L14.9754 6.0744C15.0732 6.03145 15.1304 5.93514 15.1162 5.83564C15.0876 5.63512 15.0559 5.4349 15.021 5.23502C14.8604 4.31536 14.0436 3.61617 13.0423 3.54121L11.6262 3.4352V2.33374C11.6262 1.6621 11.0963 1.09152 10.3801 0.991885L9.36024 0.850006C8.22974 0.692739 7.08027 0.692739 5.94976 0.850006L4.92987 0.991885C4.21368 1.09152 3.68385 1.66209 3.68385 2.33374ZM9.17422 2.00017C8.16704 1.86006 7.14296 1.86006 6.13579 2.00017L5.1159 2.14205C5.01359 2.15628 4.9379 2.23779 4.9379 2.33374V3.35334C6.74782 3.25718 8.56219 3.25718 10.3721 3.35334V2.33374C10.3721 2.23779 10.2964 2.15628 10.1941 2.14205L9.17422 2.00017Z" fill="url(#paint0_linear_144_1649)"/>
<path d="M15.2782 7.45856C15.272 7.34993 15.1493 7.28206 15.0421 7.32611C10.3846 9.2386 4.92539 9.2386 0.267915 7.3261C0.160655 7.28206 0.0380224 7.34992 0.0317855 7.45856C-0.0533002 8.9406 0.0324367 10.429 0.288996 11.8982C0.449585 12.8179 1.26636 13.5171 2.26766 13.5921L3.83265 13.7092C6.37675 13.8997 8.93325 13.8997 11.4773 13.7092L13.0423 13.5921C14.0436 13.5171 14.8604 12.8179 15.021 11.8982C15.2776 10.429 15.3633 8.94061 15.2782 7.45856Z" fill="url(#paint1_linear_144_1649)"/>
<defs>
<linearGradient id="paint0_linear_144_1649" x1="7.655" y1="0.732056" x2="7.655" y2="13.8521" gradientUnits="userSpaceOnUse">
<stop stop-color="#384CFF"/>
<stop offset="1" stop-color="#00A3FF"/>
</linearGradient>
<linearGradient id="paint1_linear_144_1649" x1="7.655" y1="0.732056" x2="7.655" y2="13.8521" gradientUnits="userSpaceOnUse">
<stop stop-color="#384CFF"/>
<stop offset="1" stop-color="#00A3FF"/>
</linearGradient>
</defs>
</svg>
