<svg width="15" height="15" viewBox="0 0 15 15" fill="none" xmlns="http://www.w3.org/2000/svg">
<circle cx="7.5" cy="7.5" r="7" fill="url(#paint0_linear_76_1394)" stroke="white"/>
<path d="M7.49553 3.21429C7.92572 3.21429 8.92559 3.45103 8.92559 4.89332C8.92559 5.29506 8.87766 5.54582 8.84415 5.71962C8.83752 5.7537 8.83128 5.78783 8.82545 5.82201L8.82506 5.82364C8.82249 5.84032 8.82423 5.85727 8.83017 5.87334C8.83611 5.88941 8.84611 5.90422 8.85948 5.91678C8.87286 5.92933 8.8893 5.93933 8.9077 5.94611C8.9261 5.95288 8.94602 5.95626 8.96612 5.95603C10.6802 5.95603 11.5956 6.3356 11.5956 6.72332C11.5956 6.89712 11.5176 7.05592 11.3902 7.17821C11.3863 7.18207 11.3834 7.18659 11.3817 7.19146C11.38 7.19633 11.3796 7.20145 11.3804 7.20647C11.3813 7.21149 11.3834 7.21631 11.3866 7.2206C11.3898 7.22489 11.3941 7.22856 11.3992 7.23136C11.517 7.29367 11.6142 7.3798 11.6817 7.48181C11.7493 7.58382 11.785 7.69843 11.7857 7.81505C11.7857 8.09549 11.5999 8.33614 11.3123 8.44864C11.3069 8.45082 11.302 8.45392 11.2982 8.45776C11.2943 8.46159 11.2914 8.46607 11.2897 8.4709C11.288 8.47573 11.2875 8.4808 11.2883 8.48578C11.2891 8.49077 11.2912 8.49556 11.2944 8.49984C11.375 8.60679 11.4226 8.73234 11.4226 8.86766C11.4226 9.17614 11.2094 9.43538 10.8747 9.52929C10.8642 9.53234 10.8555 9.53873 10.8505 9.54709C10.8455 9.55545 10.8447 9.5651 10.8482 9.57397C10.872 9.63397 10.8864 9.69788 10.8864 9.7644C10.8864 10.1088 10.1943 10.3882 8.56788 10.3882C7.37941 10.3882 6.55956 10.2105 6.24432 10.083C6.01247 9.98908 5.74711 9.81886 5.74711 9.31995V7.33538C5.74711 6.77451 6.1204 6.39951 6.49175 6.02647C6.86038 5.65669 7.22783 5.28821 7.22783 4.74071C7.22783 4.30375 7.19237 4.02658 7.16587 3.82212C7.15068 3.70212 7.1386 3.6069 7.1386 3.51951C7.1386 3.34766 7.28823 3.21495 7.49553 3.21429ZM4.57812 6.80125H3.79879C3.40913 6.80125 3.21429 7.67712 3.21429 8.75777C3.21429 9.83842 3.40913 10.7143 3.79879 10.7143H4.57812C4.68146 10.7143 4.78057 10.6799 4.85365 10.6188C4.92673 10.5576 4.96778 10.4747 4.96778 10.3882V7.12734C4.96778 7.04085 4.92673 6.95791 4.85365 6.89676C4.78057 6.83561 4.68146 6.80125 4.57812 6.80125Z" fill="white"/>
<defs>
<linearGradient id="paint0_linear_76_1394" x1="7.5" y1="-3.21429" x2="7.5" y2="18.75" gradientUnits="userSpaceOnUse">
<stop stop-color="#6B79F2"/>
<stop offset="1" stop-color="#0019FE"/>
</linearGradient>
</defs>
</svg>
