<svg width="21" height="17" viewBox="0 0 21 17" fill="none" xmlns="http://www.w3.org/2000/svg">
<path d="M6.33329 6.08326C5.52788 6.08326 4.87496 6.73617 4.87496 7.54159C4.87496 8.347 5.52788 8.99992 6.33329 8.99992C7.13871 8.99992 7.79163 8.347 7.79163 7.54159C7.79163 6.73617 7.13871 6.08326 6.33329 6.08326Z" fill="black"/>
<path d="M11 6.08326C10.1945 6.08326 9.54163 6.73617 9.54163 7.54159C9.54163 8.347 10.1945 8.99992 11 8.99992C11.8054 8.99992 12.4583 8.347 12.4583 7.54159C12.4583 6.73617 11.8054 6.08326 11 6.08326Z" fill="black"/>
<path d="M14.2083 7.54159C14.2083 6.73617 14.8612 6.08326 15.6666 6.08326C16.472 6.08326 17.125 6.73617 17.125 7.54159C17.125 8.347 16.472 8.99992 15.6666 8.99992C14.8612 8.99992 14.2083 8.347 14.2083 7.54159Z" fill="black"/>
<path fill-rule="evenodd" clip-rule="evenodd" d="M15.7841 0.358179C12.6409 0.0901257 9.48127 0.0745695 6.33556 0.31166L6.11012 0.328651C3.11027 0.554749 0.791626 3.05472 0.791626 6.06308V15.9999C0.791626 16.3078 0.953403 16.593 1.21763 16.7509C1.48186 16.9089 1.80967 16.9164 2.08084 16.7707L6.64343 14.3187C6.85566 14.2046 7.09284 14.1449 7.33378 14.1449H17.8063C19.127 14.1449 20.2589 13.2006 20.4957 11.9013C20.9755 9.26782 21.0134 6.57286 20.6078 3.92696L20.4883 3.14725C20.2707 1.72771 19.1094 0.641758 17.6785 0.519729L15.7841 0.358179ZM6.46708 2.05671C9.5195 1.82665 12.5854 1.84175 15.6354 2.10185L17.5298 2.2634C18.1555 2.31676 18.6634 2.79164 18.7585 3.4124L18.878 4.19211C19.2542 6.64594 19.219 9.14528 18.774 11.5876C18.6888 12.0551 18.2815 12.3949 17.8063 12.3949H7.33378C6.80372 12.3949 6.28191 12.5263 5.815 12.7772L2.54163 14.5363V6.06308C2.54163 3.9702 4.15468 2.231 6.24165 2.0737L6.46708 2.05671Z" fill="black"/>
</svg>
