<svg width="20" height="23" viewBox="0 0 20 23" fill="none" xmlns="http://www.w3.org/2000/svg">
<path d="M10 1C7.59489 1 5.64516 3.13954 5.64516 5.77879C5.64516 8.41805 7.59489 10.5576 10 10.5576C12.4051 10.5576 14.3548 8.41805 14.3548 5.77879C14.3548 3.13954 12.4051 1 10 1Z" stroke="black" stroke-linecap="round" stroke-linejoin="round"/>
<path d="M5.35484 13.1063C2.94973 13.1063 1 15.2458 1 17.8851V19.3994C1 20.3592 1.63393 21.1777 2.49722 21.3323C7.46618 22.2226 12.5338 22.2226 17.5028 21.3323C18.3661 21.1777 19 20.3592 19 19.3994V17.8851C19 15.2458 17.0503 13.1063 14.6452 13.1063H14.2493C14.0351 13.1063 13.8222 13.1435 13.6185 13.2164L12.6134 13.5766C10.9152 14.1851 9.08475 14.1851 7.38662 13.5766L6.3815 13.2164C6.17784 13.1435 5.96494 13.1063 5.75069 13.1063H5.35484Z" stroke="black" stroke-linecap="round" stroke-linejoin="round"/>
</svg>
