<svg width="16" height="19" viewBox="0 0 16 19" fill="none" xmlns="http://www.w3.org/2000/svg">
<path fill-rule="evenodd" clip-rule="evenodd" d="M8.06818 12C11.9468 12 14.7044 14.0891 15.4262 17.1612L15.4723 17.3722C15.6207 18.1046 15.158 18.8209 14.4386 18.9721C14.3502 18.9906 14.2601 19 14.1698 19H1.85015C1.10448 19 0.5 18.3845 0.5 17.6252C0.5 17.55 0.506062 17.475 0.518095 17.4009L0.540612 17.2906C1.28983 14.2509 4.10138 12 8.06818 12ZM12.1564 2.34146C13.1542 4.04299 13.3394 6.12136 12.712 8.57659C12.6665 8.83154 12.8308 9.03621 13.205 9.1906L13.254 9.20907L13.3154 9.22927C13.4541 9.27229 13.5313 9.41858 13.4879 9.55603C13.4756 9.59505 13.4543 9.63038 13.426 9.65938L13.3786 9.69782C12.7609 10.0894 10.9785 10.1183 9.94439 9.91546C9.26092 10.6385 8.51387 11 7.70325 11C6.89263 11 6.13732 10.6385 5.43733 9.91546C3.47911 9.76057 2.5 8.30636 2.5 5.55284C2.5 3.03199 3.52168 1.37522 5.56504 0.582529C5.91731 0.445863 6.30411 0.422866 6.67034 0.516806L6.94147 0.586354C8.83799 -0.585695 10.5763 -0.000658027 12.1564 2.34146Z" fill="url(#paint0_linear_178_1616)"/>
<defs>
<linearGradient id="paint0_linear_178_1616" x1="-0.611111" y1="0.527778" x2="20.9058" y2="6.89791" gradientUnits="userSpaceOnUse">
<stop stop-color="#384CFF"/>
<stop offset="1" stop-color="#00A3FF"/>
</linearGradient>
</defs>
</svg>
