<svg width="21" height="19" viewBox="0 0 21 19" fill="none" xmlns="http://www.w3.org/2000/svg">
<path d="M4.67 0.0588096L8.13 5.42857H0V4.97619C0 2.47905 2.025 0.416191 4.67 0.0588096ZM14.63 5.42857H9.285L5.785 0H11.13L14.63 5.42857ZM21 4.97619V5.42857H15.785L12.285 0H15.5C18.54 0 21 2.22571 21 4.97619ZM0 6.33333V14.0238C0 16.7743 2.46 19 5.5 19H15.5C18.54 19 21 16.7743 21 14.0238V6.33333H0ZM13.5 12.7526L9.505 14.8064C8.84 15.1502 8 14.725 8 14.0419V9.93429C8 9.25119 8.84 8.82595 9.505 9.16976L13.5 11.2236C14.165 11.5629 14.165 12.4133 13.5 12.7526Z" fill="#F9C50F"/>
</svg>
