<svg width="21" height="20" viewBox="0 0 21 20" fill="none" xmlns="http://www.w3.org/2000/svg">
<path d="M13.5962 2.65463C11.3213 2.27324 8.98644 2.27324 6.71148 2.65463C5.88036 2.79397 5.21847 3.43203 5.05183 4.25934C4.2884 8.04941 4.24674 11.9495 4.92905 15.755L5.20684 17.3044C5.2925 17.7821 5.87492 17.9731 6.2268 17.6388L9.5799 14.4533C9.90154 14.1478 10.4062 14.1478 10.7278 14.4533L14.0809 17.6388C14.4328 17.9731 15.0152 17.7821 15.1009 17.3044L15.3787 15.755C16.061 11.9495 16.0193 8.04941 15.2559 4.25934C15.0892 3.43202 14.4274 2.79397 13.5962 2.65463Z" fill="url(#paint0_linear_144_1659)"/>
<defs>
<linearGradient id="paint0_linear_144_1659" x1="10.1539" y1="2.36859" x2="10.1539" y2="17.807" gradientUnits="userSpaceOnUse">
<stop stop-color="#384CFF"/>
<stop offset="1" stop-color="#00A3FF"/>
</linearGradient>
</defs>
</svg>
