<svg width="30" height="30" viewBox="0 0 30 30" fill="none" xmlns="http://www.w3.org/2000/svg">
<rect width="30" height="30" rx="10" fill="#EEEEEE"/>
<path fill-rule="evenodd" clip-rule="evenodd" d="M17.3419 18.4392C14.6002 20.6351 10.5868 20.4623 8.04526 17.9207C5.31825 15.1937 5.31825 10.7723 8.04526 8.04526C10.7723 5.31824 15.1937 5.31825 17.9207 8.04526C20.4622 10.5868 20.6351 14.6002 18.4392 17.3419L23.7727 22.6755C24.0758 22.9785 24.0758 23.4697 23.7727 23.7727C23.4697 24.0758 22.9785 24.0758 22.6755 23.7727L17.3419 18.4392ZM9.14253 16.8234C7.02152 14.7024 7.02152 11.2635 9.14253 9.14253C11.2635 7.02152 14.7024 7.02152 16.8234 9.14253C18.9429 11.262 18.9444 14.6973 16.8281 16.8187L16.8234 16.8234L16.8187 16.8281C14.6974 18.9444 11.262 18.9429 9.14253 16.8234Z" fill="#555555" stroke="#555555" stroke-linecap="round"/>
</svg>
