<svg width="32" height="35" viewBox="0 0 32 35" fill="none" xmlns="http://www.w3.org/2000/svg">
<path d="M18.5615 0.715489C16.9856 -0.238497 15.0144 -0.238496 13.4385 0.71549L12.2991 1.40529C9.53444 3.07899 6.4307 4.10604 3.21773 4.41037L2.49987 4.47837C1.08284 4.61259 0 5.80864 0 7.2396V10.887C0 17.0521 2.48957 22.9531 6.8984 27.2381L14.0826 34.2206C15.1519 35.2598 16.8481 35.2598 17.9173 34.2206L25.1016 27.2381C29.5104 22.9531 32 17.0521 32 10.887V7.2396C32 5.80864 30.9172 4.61259 29.5001 4.47837L28.7823 4.41037C25.5693 4.10604 22.4656 3.07899 19.7009 1.40529L18.5615 0.715489Z" fill="url(#paint0_linear_105_1994)"/>
<path fill-rule="evenodd" clip-rule="evenodd" d="M11.8461 12.4683L12.1498 15.031L11.5354 15.077C10.6786 15.1412 9.97905 15.7452 9.84017 16.5407C9.52008 18.374 9.52008 20.244 9.84017 22.0774C9.97905 22.8729 10.6786 23.4769 11.5354 23.5411L12.8594 23.6402C14.9499 23.7967 17.0503 23.7967 19.1408 23.6402L20.4648 23.5411C21.3216 23.4769 22.0211 22.8729 22.16 22.0774C22.4801 20.244 22.4801 18.374 22.16 16.5407C22.0211 15.7452 21.3216 15.1412 20.4648 15.077L19.8504 15.031L20.154 12.4683C20.1897 12.1662 20.1897 11.8614 20.154 11.5593L20.1338 11.3892C19.9201 9.58529 18.408 8.15798 16.486 7.94591C16.1632 7.91028 15.837 7.91028 15.5141 7.94591C13.5921 8.15798 12.08 9.58529 11.8663 11.3892L11.8461 11.5593C11.8104 11.8614 11.8104 12.1662 11.8461 12.4683ZM16.3309 9.18237C16.1111 9.15812 15.889 9.15812 15.6692 9.18237C14.3606 9.32676 13.3312 10.2985 13.1857 11.5267L13.1655 11.6967C13.1405 11.9075 13.1405 12.1201 13.1655 12.3309L13.4742 14.9364C15.1564 14.8352 16.8437 14.8352 18.5259 14.9364L18.8346 12.3309C18.8596 12.1201 18.8596 11.9075 18.8346 11.6967L18.8145 11.5267C18.6689 10.2985 17.6395 9.32676 16.3309 9.18237ZM16.0001 18.064C15.2669 18.064 14.6726 18.6214 14.6726 19.309C14.6726 19.9966 15.2669 20.554 16.0001 20.554C16.7332 20.554 17.3275 19.9966 17.3275 19.309C17.3275 18.6214 16.7332 18.064 16.0001 18.064Z" fill="white"/>
<defs>
<linearGradient id="paint0_linear_105_1994" x1="16" y1="0" x2="16" y2="35" gradientUnits="userSpaceOnUse">
<stop stop-color="#384CFF"/>
<stop offset="1" stop-color="#00A3FF"/>
</linearGradient>
</defs>
</svg>
