<svg width="20" height="20" viewBox="0 0 20 20" fill="none" xmlns="http://www.w3.org/2000/svg">
<path fill-rule="evenodd" clip-rule="evenodd" d="M1 9.76923C1 4.92612 5.02944 1 10 1C14.9706 1 19 4.92612 19 9.76923C19 14.6123 14.9706 18.5385 10 18.5385C9.01318 18.5385 8.0626 18.3835 7.17299 18.097L4.46558 18.9763C4.32113 19.0232 4.16234 18.9996 4.03882 18.9129C3.9153 18.8261 3.84211 18.6868 3.84211 18.5385V16.1645C2.09338 14.5653 1 12.2914 1 9.76923ZM12.6305 11.6502L15.1411 8.0322C15.3896 7.67583 14.9183 7.28847 14.5584 7.54413L11.8508 9.40346C11.7618 9.46381 11.6536 9.49643 11.5423 9.49643C11.4311 9.49643 11.3229 9.46381 11.2339 9.40346L9.22883 8.03995C8.62904 7.63709 7.77219 7.78429 7.36947 8.34984L4.8589 11.9678C4.61041 12.3242 5.08168 12.7115 5.44155 12.4559L8.1492 10.5965C8.23819 10.5362 8.34643 10.5036 8.45767 10.5036C8.56891 10.5036 8.67714 10.5362 8.76614 10.5965L10.7712 11.9368C11.371 12.3629 12.2278 12.2157 12.6305 11.6502Z" stroke="black" stroke-linecap="round" stroke-linejoin="round"/>
</svg>
