<svg width="15" height="15" viewBox="0 0 15 15" fill="none" xmlns="http://www.w3.org/2000/svg">
<path d="M4.77454 9.86234L4.76901 9.86891C4.75349 9.88735 4.74592 9.91121 4.74799 9.93523C4.75005 9.95925 4.76157 9.98147 4.78001 9.997L4.78046 9.99737C5.54032 10.6386 6.50281 10.9898 7.49706 10.9886L7.49829 10.9886C8.49247 10.9899 9.45495 10.6389 10.2149 9.9979L10.2177 9.99557L10.2177 9.99558C10.2269 9.98792 10.2345 9.97851 10.2401 9.9679C10.2456 9.95728 10.249 9.94567 10.2501 9.93373C10.2512 9.92179 10.2499 9.90975 10.2463 9.89833L10.7231 9.74796L10.2463 9.89833C10.2426 9.8869 10.2368 9.87629 10.2291 9.86712C10.2214 9.85796 10.2119 9.8504 10.2013 9.8449L10.4307 9.40067L10.2013 9.8449C10.1906 9.8394 10.179 9.83606 10.167 9.83507C10.1551 9.83408 10.1431 9.83546 10.1317 9.83914C10.1203 9.84282 10.1097 9.84871 10.1006 9.85649L10.0982 9.85852L10.0982 9.85851C9.39522 10.4503 8.48867 10.8068 7.4979 10.8068M4.77454 9.86234L4.79287 9.84057L4.82705 9.79996M4.77454 9.86234C4.78091 9.85615 4.78818 9.85091 4.7961 9.8468C4.80671 9.8413 4.8183 9.83796 4.8302 9.83694L4.82705 9.79996M4.77454 9.86234L4.82705 9.79996M7.4979 10.8068C6.54587 10.8083 5.62416 10.4721 4.89661 9.85811L4.89655 9.85806C4.88742 9.85035 4.87686 9.84452 4.86548 9.8409M7.4979 10.8068C7.49781 10.8068 7.49772 10.8068 7.49764 10.8068V10.3068L7.49848 10.8068C7.49829 10.8068 7.49809 10.8068 7.4979 10.8068ZM4.86548 9.8409L4.90978 9.70169L4.82706 9.79996M4.86548 9.8409C4.85409 9.83727 4.84211 9.83593 4.8302 9.83694L4.82706 9.79996M4.86548 9.8409L4.90979 9.70168L4.82705 9.79996M4.82706 9.79996L4.7878 9.33874L4.82705 9.79996M4.82706 9.79996L4.82705 9.79996M7.5 14.5C11.3659 14.5 14.5 11.3659 14.5 7.5C14.5 3.63408 11.3659 0.5 7.5 0.5C3.63408 0.5 0.5 3.63408 0.5 7.5C0.5 11.3659 3.63408 14.5 7.5 14.5ZM4.89773 6.31818C4.89773 6.01574 4.96685 5.83883 5.03324 5.75033C5.08653 5.67929 5.15668 5.63636 5.28409 5.63636C5.41192 5.63636 5.48196 5.67938 5.53509 5.75024C5.60139 5.83866 5.67045 6.01555 5.67045 6.31818C5.67045 6.62062 5.60133 6.79754 5.53494 6.88603C5.48165 6.95707 5.4115 7 5.28409 7C5.15626 7 5.08622 6.95698 5.03309 6.88613C4.96679 6.7977 4.89773 6.62081 4.89773 6.31818ZM9.32955 6.31818C9.32955 6.01574 9.39867 5.83883 9.46506 5.75033C9.51835 5.67929 9.5885 5.63636 9.71591 5.63636C9.84374 5.63636 9.91378 5.67938 9.96691 5.75024C10.0332 5.83866 10.1023 6.01555 10.1023 6.31818C10.1023 6.62063 10.0331 6.79754 9.96676 6.88603C9.91346 6.95707 9.84332 7 9.71591 7C9.58808 7 9.51804 6.95698 9.46491 6.88613C9.39861 6.7977 9.32955 6.62081 9.32955 6.31818Z" stroke="#555555"/>
</svg>
